<?xml version="1.0" encoding="utf-8"?>
<!-- Generator: Adobe Illustrator 15.1.0, SVG Export Plug-In . SVG Version: 6.00 Build 0)  -->
<!DOCTYPE svg PUBLIC "-//W3C//DTD SVG 1.1//EN" "http://www.w3.org/Graphics/SVG/1.1/DTD/svg11.dtd">
<svg version="1.1" id="Ebene_1" xmlns="http://www.w3.org/2000/svg" xmlns:xlink="http://www.w3.org/1999/xlink" x="0px" y="0px"
	 width="533.983px" height="293.279px" viewBox="0 0 533.983 293.279" enable-background="new 0 0 533.983 293.279"
	 xml:space="preserve">
<g>
	<g>
		<line fill="none" stroke="#000000" stroke-width="2" stroke-miterlimit="10" x1="58.983" y1="268" x2="521.983" y2="268"/>
		<g>
			<path d="M533.983,268c-5.68,2.107-12.727,5.703-17.095,9.512l3.44-9.512l-3.44-9.51C521.257,262.299,528.304,265.895,533.983,268
				z"/>
		</g>
	</g>
</g>
<g>
	<g>
		<line fill="none" stroke="#000000" stroke-width="2" stroke-miterlimit="10" x1="58.983" y1="268" x2="58.983" y2="12"/>
		<g>
			<path d="M58.983,0c2.107,5.68,5.703,12.727,9.512,17.095l-9.512-3.44l-9.51,3.44C53.282,12.727,56.878,5.68,58.983,0z"/>
		</g>
	</g>
</g>
<line fill="none" stroke="#3FA9F5" stroke-width="2" stroke-miterlimit="10" x1="58.983" y1="268" x2="476.538" y2="32.411"/>
<line fill="none" stroke="#F15A24" stroke-width="2" stroke-miterlimit="10" x1="58.983" y1="32.411" x2="476.538" y2="268"/>
<g>
	<g>
		<line fill="none" stroke="#000000" stroke-miterlimit="10" x1="267.483" y1="113" x2="267.483" y2="141"/>
		<g>
			<path d="M267.983,147c-1.054-2.84-2.852-6.363-4.756-8.547l4.756,1.72l4.755-1.72C270.834,140.637,269.036,144.16,267.983,147z"
				/>
		</g>
	</g>
</g>
<g>
	<g>
		<line fill="none" stroke="#000000" stroke-miterlimit="10" x1="201.483" y1="119" x2="201.483" y2="181"/>
		<g>
			<path d="M201.983,113c-1.054,2.84-2.852,6.363-4.756,8.547l4.756-1.72l4.755,1.72C204.834,119.363,203.036,115.84,201.983,113z"
				/>
		</g>
		<g>
			<path d="M201.983,187c-1.054-2.84-2.852-6.363-4.756-8.547l4.756,1.72l4.755-1.72C204.834,180.637,203.036,184.16,201.983,187z"
				/>
		</g>
	</g>
</g>
<g>
	<g>
		<line fill="none" stroke="#000000" stroke-miterlimit="10" x1="333.483" y1="119" x2="333.483" y2="181"/>
		<g>
			<path d="M333.983,113c-1.054,2.84-2.852,6.363-4.756,8.547l4.756-1.72l4.755,1.72C336.834,119.363,335.036,115.84,333.983,113z"
				/>
		</g>
		<g>
			<path d="M333.983,187c-1.054-2.84-2.852-6.363-4.756-8.547l4.756,1.72l4.755-1.72C336.834,180.637,335.036,184.16,333.983,187z"
				/>
		</g>
	</g>
</g>
<rect x="81.933" y="32.411" fill="none" width="116.807" height="32.028"/>
<text transform="matrix(1 0 0 1 81.9331 40.9312)" fill="#F15A24" font-family="'MyriadPro-Regular'" font-size="12">Nachfrage</text>
<rect x="410.556" y="32.411" fill="none" width="94.907" height="32.029"/>
<text transform="matrix(1 0 0 1 410.5557 40.9312)" fill="#3FA9F5" font-family="'MyriadPro-Regular'" font-size="12">Angebot</text>
<rect x="3.361" y="23.529" fill="none" width="53.782" height="66.84"/>
<text transform="matrix(1 0 0 1 3.3613 32.0493)"><tspan x="0" y="0" font-family="'MyriadPro-Regular'" font-size="12">Preis des </tspan><tspan x="0" y="14.4" font-family="'MyriadPro-Regular'" font-size="12">Angebots</tspan></text>
<rect x="467.487" y="276.639" fill="none" width="53.783" height="66.84"/>
<text transform="matrix(1 0 0 1 467.4873 285.1592)" font-family="'MyriadPro-Regular'" font-size="12">Menge</text>
<rect x="79.514" y="112" fill="none" width="121.645" height="85.459"/>
<text transform="matrix(1 0 0 1 79.5142 120.5195)"><tspan x="0" y="0" font-family="'MyriadPro-Regular'" font-size="12">Zu niedriger Preis f端hrt </tspan><tspan x="0" y="14.4" font-family="'MyriadPro-Regular'" font-size="12">zu:</tspan><tspan x="0" y="28.801" font-family="'MyriadPro-Regular'" font-size="12">- Angebotsdefizit</tspan><tspan x="0" y="43.2" font-family="'MyriadPro-Regular'" font-size="12">- Nachfrage端berhang</tspan></text>
<rect x="345.842" y="113" fill="none" width="121.646" height="85.459"/>
<text transform="matrix(1 0 0 1 345.8428 121.5195)"><tspan x="0" y="0" font-family="'MyriadPro-Regular'" font-size="12">Zu hoher Preis f端hrt zu:</tspan><tspan x="0" y="14.4" font-family="'MyriadPro-Regular'" font-size="12">- Angebots端berhang</tspan><tspan x="0" y="28.801" font-family="'MyriadPro-Regular'" font-size="12">- Nachfragedefizit</tspan></text>
<rect x="221.429" y="102.135" fill="none" width="114.857" height="37.408"/>
<text transform="matrix(1 0 0 1 221.4287 110.6543)" font-family="'MyriadPro-Regular'" font-size="12">Gleichgewichtspreis</text>
<g>
	<g>
		<line fill="none" stroke="#808080" stroke-miterlimit="10" x1="267.483" y1="150" x2="267.483" y2="156"/>
		
			<line fill="none" stroke="#808080" stroke-miterlimit="10" stroke-dasharray="12,12" x1="267.483" y1="168" x2="267.483" y2="256"/>
		<line fill="none" stroke="#808080" stroke-miterlimit="10" x1="267.483" y1="262" x2="267.483" y2="268"/>
	</g>
</g>
<line fill="none" stroke="#808080" stroke-miterlimit="10" stroke-dasharray="12" x1="266.983" y1="150.5" x2="58.983" y2="150.5"/>
<rect x="225.21" y="276.639" fill="none" width="83.001" height="33.281"/>
<text transform="matrix(1 0 0 1 225.2104 285.1582)" font-family="'MyriadPro-Regular'" font-size="12">optimale Menge</text>
<rect x="3.361" y="142.328" fill="none" width="83.001" height="33.281"/>
<text transform="matrix(1 0 0 1 3.3613 150.8477)"><tspan x="0" y="0" font-family="'MyriadPro-Regular'" font-size="12">optimaler</tspan><tspan x="0" y="14.4" font-family="'MyriadPro-Regular'" font-size="12">Preis</tspan></text>
</svg>
