<svg xmlns="http://www.w3.org/2000/svg" xmlns:xlink="http://www.w3.org/1999/xlink" overflow="visible" viewBox="-10 0 550 370">
<style>text{font-family:Arial;font-size:12px;}.t8{font-size:8px;}.t14{font-size:14x;}g{fill:none;stroke-miterlimit:10;stroke-width:2;}</style>
<path fill="#FFF" d="M-10 0h550v370h-550-370"/>
 
<text class="t14" transform="translate(47 28)">Preis</text>
<text fill="#00F" transform="translate(349 37)">Angebot1</text>
<text fill="#00F" transform="translate(435 37)">Angebot2</text>
<text class="t14" transform="translate(458 346)">Menge</text>
<text transform="translate(-5 178)"><tspan x="0" y="0" fill="#006837">Gleichgewichts-</tspan><tspan x="25" y="14" fill="#006837">preis1</tspan></text>
<text transform="translate(-5 225)"><tspan x="0" y="0" fill="#0071BC">Gleichgewichts-</tspan><tspan x="25" y="14" fill="#0071BC">preis2</tspan></text>
<text transform="translate(167 342)"><tspan x="0" y="0" fill="#006837">Gleichgewichts-</tspan><tspan x="19" y="14" fill="#006837">menge1</tspan></text>
<text transform="translate(263 342)"><tspan x="0" y="0" fill="#0071BC">Gleichgewichts-</tspan><tspan x="19" y="14" fill="#0071BC">menge2</tspan></text>

<text fill="red" transform="translate(344.3 299.5)">Nachfrage</text>


<path fill="none" stroke="#006837" stroke-miterlimit="10" stroke-width="2" stroke-dasharray="6 3" d="M85 185h140v141"/>
<path fill="none" stroke="#0071BC" stroke-miterlimit="10" stroke-width="2" stroke-dasharray="6 3" d="M85 230h187v95"/>


<path fill="none" stroke="red" stroke-miterlimit="10" stroke-width="2" d="M368.2 326.6L84.6 42.5"/>

<path fill="none" stroke="#00F" stroke-miterlimit="10" stroke-width="2" d="M367.4 43.7L84.6 326.5"/>

<path fill="none" stroke="#000" stroke-miterlimit="10" stroke-width="2" d="M85 26v300"/>
<path fill="#000" d="M88 28l-3-11-3 11z"/>

<path fill="none" stroke="#000" stroke-miterlimit="10" stroke-width="2" d="M84 326h400"/>
<path fill="#000" d="M484 329l11-3-11-3z"/>

<path fill="none" stroke="gray" stroke-miterlimit="10" d="M331.7 80h84.5"/>
<path fill="#8C8C8C" d="M413.9 81.9l7.2-1.9-7.2-1.9z"/>
<path fill="none" stroke="#00F" stroke-miterlimit="10" stroke-width="2" d="M456.1 46.5l-280 280"/>

<text fill="gray" class="t8" transform="translate(344 76)">Rechtsverschiebung</text>
<text fill="gray" class="t8" transform="translate(344 89)">der Angebotskurve</text>



</svg>